# xmcd
#
# Track frame offsets: 
#        170
#        24095
#        55277
#        85945
#        106352
#        135362
#        167802
#        205187
#        232660
#        257700
#
# Disc length: 3573 seconds
#
# Revision: 1
# Processed by: cddbd v1.5.2PL0 Copyright (c) Steve Scherf et al.
# Submitted via: ExactAudioCopy v0.99pb5
#
DISCID=740df30a
DTITLE=Travis 'Moonchild' Haddix - Shootum Up
DYEAR=1999
DGENRE=Blues
TTITLE0=Highway 15 And 72
TTITLE1=Mustang Sally
TTITLE2=The Dip
TTITLE3=Shootum Up
TTITLE4=Made To Order
TTITLE5=Knock On Wood
TTITLE6=Hey, Hey, The Blues Is All Right
TTITLE7=Second Hand Blues
TTITLE8=Green Thumb
TTITLE9=Wood Burning Fireplace
EXTD=
EXTT0=
EXTT1=
EXTT2=
EXTT3=
EXTT4=
EXTT5=
EXTT6=
EXTT7=
EXTT8=
EXTT9=
PLAYORDER=
